<?xml version="1.0" encoding="UTF-8"?> <svg xmlns="http://www.w3.org/2000/svg" width="160" height="160" viewBox="0 0 160 160" fill="none"> <circle cx="77.1701" cy="79.3429" r="53.3429" fill="#00A38F"></circle> <path d="M94.1023 86.6666C93.7658 86.6666 93.4353 86.578 93.1439 86.4098L79.8729 78.7431C79.5819 78.5746 79.3403 78.3326 79.1725 78.0412C79.0046 77.7499 78.9163 77.4195 78.9165 77.0833V61.7499C78.9165 61.2416 79.1184 60.7541 79.4779 60.3946C79.8373 60.0352 80.3248 59.8333 80.8332 59.8333C83.8613 59.8324 86.8362 60.6292 89.4586 62.1434C92.081 63.6575 94.2583 65.8357 95.7715 68.4586C97.2846 71.0816 98.0802 74.0568 98.0783 77.085C98.0763 80.1131 97.2768 83.0873 95.7602 85.7083C95.5921 85.9993 95.3505 86.2411 95.0595 86.4093C94.7685 86.5775 94.4384 86.6662 94.1023 86.6666ZM82.7498 75.9773L93.2915 82.0666C94.0458 80.1815 94.3625 78.1499 94.2176 76.1247C94.0727 74.0995 93.4701 72.1336 92.4551 70.3751C91.4402 68.6166 90.0393 67.1115 88.3582 65.973C86.677 64.8345 84.7594 64.0924 82.7498 63.8027V75.9773Z" fill="white"></path> <path d="M75.0835 98.1667C70.5085 98.1667 66.1209 96.3493 62.8859 93.1143C59.6509 89.8793 57.8335 85.4917 57.8335 80.9167C57.8335 76.3418 59.6509 71.9542 62.8859 68.7192C66.1209 65.4842 70.5085 63.6667 75.0835 63.6667C75.5918 63.6667 76.0793 63.8687 76.4388 64.2281C76.7982 64.5876 77.0002 65.0751 77.0002 65.5834V79.8108L89.3128 86.9236C89.7528 87.1774 90.0741 87.5956 90.206 88.0861C90.3379 88.5767 90.2696 89.0996 90.0163 89.5398C88.5006 92.1595 86.3236 94.3352 83.703 95.8492C81.0823 97.3632 78.11 98.1624 75.0835 98.1667V98.1667ZM73.1668 67.6362C70.9972 67.9495 68.9374 68.7897 67.1676 70.0833C65.3978 71.3768 63.972 73.0843 63.0147 75.0564C62.0575 77.0285 61.598 79.2051 61.6766 81.3958C61.7551 83.5865 62.3693 85.7246 63.4653 87.6231C64.5613 89.5216 66.1058 91.1226 67.9637 92.286C69.8216 93.4495 71.9363 94.14 74.1227 94.2972C76.3092 94.4544 78.5009 94.0734 80.5061 93.1876C82.5113 92.3018 84.2689 90.9381 85.6252 89.2159L74.1252 82.5766C73.8338 82.4084 73.5918 82.1664 73.4236 81.8751C73.2554 81.5837 73.1668 81.2532 73.1668 80.9167V67.6362Z" fill="white"></path> <path d="M147.138 39.6393C149.388 39.6393 151.212 37.8153 151.212 35.5652C151.212 33.3152 149.388 31.4912 147.138 31.4912C144.888 31.4912 143.064 33.3152 143.064 35.5652C143.064 37.8153 144.888 39.6393 147.138 39.6393Z" fill="#7DF8C4"></path> <path d="M32.629 31.258C37.3947 31.258 41.258 27.3947 41.258 22.629C41.258 17.8633 37.3947 14 32.629 14C27.8633 14 24 17.8633 24 22.629C24 27.3947 27.8633 31.258 32.629 31.258Z" fill="#00CDA9"></path> <path d="M43.91 145.82C45.5172 145.82 46.82 144.517 46.82 142.91C46.82 141.303 45.5172 140 43.91 140C42.3029 140 41 141.303 41 142.91C41 144.517 42.3029 145.82 43.91 145.82Z" fill="#00CDA9"></path> <path d="M130.164 119.238H131.91V120.984C131.91 121.293 132.033 121.589 132.251 121.807C132.469 122.025 132.765 122.148 133.074 122.148C133.383 122.148 133.679 122.025 133.897 121.807C134.115 121.589 134.238 121.293 134.238 120.984V119.238H135.984C136.293 119.238 136.589 119.115 136.807 118.897C137.025 118.679 137.148 118.383 137.148 118.074C137.148 117.765 137.025 117.469 136.807 117.251C136.589 117.033 136.293 116.91 135.984 116.91H134.238V115.164C134.238 114.855 134.115 114.559 133.897 114.341C133.679 114.123 133.383 114 133.074 114C132.765 114 132.469 114.123 132.251 114.341C132.033 114.559 131.91 114.855 131.91 115.164V116.91H130.164C129.855 116.91 129.559 117.033 129.341 117.251C129.123 117.469 129 117.765 129 118.074C129 118.383 129.123 118.679 129.341 118.897C129.559 119.115 129.855 119.238 130.164 119.238Z" fill="#00CDA9"></path> <path d="M9.56891 98.0601H11.9223V100.413C11.9223 100.83 12.0876 101.229 12.3818 101.523C12.676 101.817 13.0751 101.982 13.4912 101.982C13.9073 101.982 14.3063 101.817 14.6006 101.523C14.8948 101.229 15.0601 100.83 15.0601 100.413V98.0601H17.4135C17.8296 98.0601 18.2286 97.8948 18.5228 97.6006C18.8171 97.3063 18.9824 96.9073 18.9824 96.4912C18.9824 96.0751 18.8171 95.676 18.5228 95.3818C18.2286 95.0876 17.8296 94.9223 17.4135 94.9223H15.0601V92.5689C15.0601 92.1528 14.8948 91.7538 14.6006 91.4595C14.3063 91.1653 13.9073 91 13.4912 91C13.0751 91 12.676 91.1653 12.3818 91.4595C12.0876 91.7538 11.9223 92.1528 11.9223 92.5689V94.9223H9.56891C9.15281 94.9223 8.75375 95.0876 8.45952 95.3818C8.1653 95.676 8 96.0751 8 96.4912C8 96.9073 8.1653 97.3063 8.45952 97.6006C8.75375 97.8948 9.15281 98.0601 9.56891 98.0601Z" fill="#DFFDF5"></path> </svg> 