<?xml version="1.0" encoding="UTF-8"?> <svg xmlns="http://www.w3.org/2000/svg" width="160" height="160" viewBox="0 0 160 160" fill="none"> <circle cx="77.1701" cy="79.3429" r="53.3429" fill="#00A38F"></circle> <path d="M81.5929 74.5672L76.9665 79.1936C76.1635 78.9845 75.3152 79.0319 74.5405 79.329C73.7658 79.6262 73.1035 80.1584 72.6464 80.8509C72.1893 81.5433 71.9604 82.3615 71.9916 83.1907C72.0228 84.0198 72.3127 84.8184 72.8206 85.4746C73.3284 86.1307 74.0289 86.6116 74.8237 86.8496C75.6186 87.0877 76.468 87.0712 77.253 86.8023C78.038 86.5334 78.7191 86.0256 79.201 85.3502C79.6829 84.6747 79.9414 83.8654 79.9403 83.0356C79.9349 82.6888 79.8853 82.3441 79.7926 82.0098L84.4151 77.3853C84.6057 77.2012 84.7577 76.981 84.8623 76.7375C84.9669 76.494 85.022 76.2321 85.0243 75.9671C85.0266 75.7021 84.9761 75.4392 84.8758 75.194C84.7754 74.9487 84.6272 74.7258 84.4398 74.5384C84.2524 74.351 84.0296 74.2028 83.7843 74.1025C83.539 74.0021 83.2762 73.9516 83.0112 73.9539C82.7462 73.9562 82.4843 74.0113 82.2408 74.1159C81.9972 74.2205 81.777 74.3725 81.5929 74.5632V74.5672Z" fill="white"></path> <path fill-rule="evenodd" clip-rule="evenodd" d="M77.2207 60C73.8529 60.1142 70.5481 60.9671 67.5415 62.5022C64.3088 64.1527 61.5126 66.5448 59.3816 69.4829C57.2505 72.4211 55.8451 75.822 55.2802 79.4074C54.835 82.2335 54.9219 85.1111 55.5294 87.8932C55.8004 89.1342 57.1106 89.7931 58.3184 89.3995C59.5261 89.006 60.1709 87.7087 59.931 86.4613C59.5301 84.3764 59.492 82.2319 59.8242 80.1233C60.2761 77.2549 61.4004 74.5343 63.1053 72.1837C64.8101 69.8332 67.047 67.9195 69.6332 66.5991C71.9921 65.3948 74.5804 64.7152 77.2207 64.6033V60ZM79.2165 64.627C81.6947 64.7913 84.1186 65.4559 86.34 66.5854C87.2219 67.0339 88.0634 67.5513 88.8572 68.1314L92.1411 64.8476C90.9846 63.9461 89.7408 63.1542 88.425 62.4851C85.5574 61.0269 82.42 60.1887 79.2165 60.019V64.627ZM90.4097 69.4015L93.665 66.1462C94.7424 67.1483 95.7247 68.2549 96.5963 69.4525C98.7322 72.3872 100.143 75.7857 100.714 79.3702C101.164 82.1956 101.081 85.0734 100.479 87.8565C100.21 89.0979 98.9005 89.7589 97.6921 89.3673C96.4837 88.9758 95.8368 87.6796 96.0746 86.4318C96.4721 84.3462 96.5068 82.2017 96.1711 80.0935C95.7145 77.226 94.5857 74.5071 92.8771 72.1594C92.1469 71.1561 91.3197 70.2328 90.4097 69.4015Z" fill="white"></path> <path d="M147.138 39.6393C149.388 39.6393 151.212 37.8153 151.212 35.5652C151.212 33.3152 149.388 31.4912 147.138 31.4912C144.888 31.4912 143.064 33.3152 143.064 35.5652C143.064 37.8153 144.888 39.6393 147.138 39.6393Z" fill="#7DF8C4"></path> <path d="M21.629 131.258C26.3947 131.258 30.258 127.395 30.258 122.629C30.258 117.863 26.3947 114 21.629 114C16.8633 114 13 117.863 13 122.629C13 127.395 16.8633 131.258 21.629 131.258Z" fill="#00CDA9"></path> <path d="M132.91 138.82C134.517 138.82 135.82 137.517 135.82 135.91C135.82 134.303 134.517 133 132.91 133C131.303 133 130 134.303 130 135.91C130 137.517 131.303 138.82 132.91 138.82Z" fill="#00CDA9"></path> <path d="M137.164 82.238H138.91V83.984C138.91 84.2928 139.033 84.5888 139.251 84.8071C139.469 85.0254 139.765 85.1481 140.074 85.1481C140.383 85.1481 140.679 85.0254 140.897 84.8071C141.115 84.5888 141.238 84.2928 141.238 83.984V82.238H142.984C143.293 82.238 143.589 82.1154 143.807 81.8971C144.025 81.6788 144.148 81.3827 144.148 81.074C144.148 80.7653 144.025 80.4692 143.807 80.251C143.589 80.0327 143.293 79.91 142.984 79.91H141.238V78.164C141.238 77.8553 141.115 77.5592 140.897 77.3409C140.679 77.1226 140.383 77 140.074 77C139.765 77 139.469 77.1226 139.251 77.3409C139.033 77.5592 138.91 77.8553 138.91 78.164V79.91H137.164C136.855 79.91 136.559 80.0327 136.341 80.251C136.123 80.4692 136 80.7653 136 81.074C136 81.3827 136.123 81.6788 136.341 81.8971C136.559 82.1154 136.855 82.238 137.164 82.238Z" fill="#00CDA9"></path> <path d="M14.5689 45.0601H16.9223V47.4135C16.9223 47.8296 17.0876 48.2286 17.3818 48.5228C17.676 48.8171 18.0751 48.9824 18.4912 48.9824C18.9073 48.9824 19.3063 48.8171 19.6006 48.5228C19.8948 48.2286 20.0601 47.8296 20.0601 47.4135V45.0601H22.4135C22.8296 45.0601 23.2286 44.8948 23.5228 44.6006C23.8171 44.3063 23.9824 43.9073 23.9824 43.4912C23.9824 43.0751 23.8171 42.676 23.5228 42.3818C23.2286 42.0876 22.8296 41.9223 22.4135 41.9223H20.0601V39.5689C20.0601 39.1528 19.8948 38.7538 19.6006 38.4595C19.3063 38.1653 18.9073 38 18.4912 38C18.0751 38 17.676 38.1653 17.3818 38.4595C17.0876 38.7538 16.9223 39.1528 16.9223 39.5689V41.9223H14.5689C14.1528 41.9223 13.7538 42.0876 13.4595 42.3818C13.1653 42.676 13 43.0751 13 43.4912C13 43.9073 13.1653 44.3063 13.4595 44.6006C13.7538 44.8948 14.1528 45.0601 14.5689 45.0601Z" fill="#DFFDF5"></path> </svg> 