<?xml version="1.0" encoding="UTF-8"?> <svg xmlns="http://www.w3.org/2000/svg" width="160" height="160" viewBox="0 0 160 160" fill="none"> <circle cx="73.1701" cy="79.3429" r="53.3429" fill="#00A38F"></circle> <path d="M93.8701 74.9603L93.8821 66.985C93.8834 66.1986 93.7297 65.4197 93.4297 64.6929C93.1297 63.966 92.6893 63.3055 92.1337 62.749C91.5781 62.1925 90.9183 61.751 90.192 61.4498C89.4656 61.1486 88.687 60.9935 87.9006 60.9935L64.204 60.9636H64.1941C62.7526 60.9456 61.3506 61.4351 60.2335 62.3463C59.1163 63.2575 58.3551 64.5325 58.083 65.9482C58.0391 66.2153 57.9993 66.8693 57.9993 66.9451L57.9634 90.871C57.9634 92.4573 58.5936 93.9788 59.7153 95.1005C60.8371 96.2222 62.3585 96.8524 63.9448 96.8524L87.8707 96.8883H87.8827C89.4691 96.8883 90.9905 96.2581 92.1122 95.1364C93.234 94.0146 93.8642 92.4932 93.8642 90.9069L93.8761 82.9316V76.9501V74.9563L93.8701 74.9603ZM89.8825 80.9417V86.9232L79.9134 86.9092C79.3846 86.9092 78.8774 86.6992 78.5035 86.3253C78.1296 85.9513 77.9196 85.4442 77.9196 84.9154V80.9278C77.9196 80.399 78.1296 79.8918 78.5035 79.5179C78.8774 79.144 79.3846 78.9339 79.9134 78.9339V78.9339L89.8825 78.9479V80.9417V80.9417ZM64.1941 64.9513L87.9066 64.9871C88.4354 64.9871 88.9425 65.1972 89.3165 65.5711C89.6904 65.945 89.9004 66.4522 89.9004 66.981V69.3357C89.2616 69.1008 88.5872 68.9774 87.9066 68.9708L63.9807 68.9349C63.6891 68.9349 63.4009 68.8708 63.1367 68.7473C62.8725 68.6237 62.6386 68.4437 62.4515 68.2199C62.2644 67.9962 62.1287 67.7341 62.0539 67.4521C61.9792 67.1702 61.9672 66.8753 62.0188 66.5882C62.1391 66.1075 62.4207 65.6826 62.8167 65.3847C63.2126 65.0867 63.6989 64.9337 64.1941 64.9513V64.9513ZM87.8707 92.9007L63.9448 92.8648C63.4161 92.8648 62.9089 92.6547 62.535 92.2808C62.1611 91.9069 61.951 91.3998 61.951 90.871L61.9789 72.9266H63.9728L87.8986 72.9624C88.4274 72.9624 88.9346 73.1725 89.3085 73.5464C89.6824 73.9203 89.8925 74.4275 89.8925 74.9563L79.9134 74.9383C78.327 74.9383 76.8056 75.5685 75.6838 76.6903C74.5621 77.812 73.9319 79.3334 73.9319 80.9198V84.9074C73.9319 86.4938 74.5621 88.0152 75.6838 89.137C76.8056 90.2587 78.327 90.8889 79.9134 90.8889L89.8825 90.9029C89.8825 91.4317 89.6724 91.9388 89.2985 92.3127C88.9246 92.6866 88.4175 92.8967 87.8887 92.8967L87.8707 92.9007Z" fill="white"></path> <path d="M83.9011 80.9316C83.5067 80.9316 83.1212 81.0486 82.7933 81.2677C82.4655 81.4867 82.2099 81.7981 82.059 82.1625C81.9081 82.5268 81.8686 82.9277 81.9455 83.3144C82.0225 83.7012 82.2124 84.0565 82.4912 84.3353C82.77 84.6142 83.1253 84.804 83.5121 84.881C83.8988 84.9579 84.2997 84.9184 84.6641 84.7675C85.0284 84.6166 85.3398 84.3611 85.5589 84.0332C85.7779 83.7053 85.8949 83.3198 85.8949 82.9255C85.8949 82.3967 85.6848 81.8895 85.3109 81.5156C84.937 81.1417 84.4298 80.9316 83.9011 80.9316Z" fill="white"></path> <path d="M28.074 35.1481C30.3241 35.1481 32.1481 33.3241 32.1481 31.074C32.1481 28.824 30.3241 27 28.074 27C25.824 27 24 28.824 24 31.074C24 33.3241 25.824 35.1481 28.074 35.1481Z" fill="#7DF8C4"></path> <path d="M142.986 91.8942C147.752 91.8942 151.615 88.0309 151.615 83.2652C151.615 78.4996 147.752 74.6362 142.986 74.6362C138.221 74.6362 134.357 78.4996 134.357 83.2652C134.357 88.0309 138.221 91.8942 142.986 91.8942Z" fill="#00CDA9"></path> <path d="M16.91 132.82C18.5172 132.82 19.82 131.517 19.82 129.91C19.82 128.303 18.5172 127 16.91 127C15.3029 127 14 128.303 14 129.91C14 131.517 15.3029 132.82 16.91 132.82Z" fill="#00CDA9"></path> <path d="M127.164 40.238H128.91V41.984C128.91 42.2928 129.033 42.5888 129.251 42.8071C129.469 43.0254 129.765 43.1481 130.074 43.1481C130.383 43.1481 130.679 43.0254 130.897 42.8071C131.115 42.5888 131.238 42.2928 131.238 41.984V40.238H132.984C133.293 40.238 133.589 40.1154 133.807 39.8971C134.025 39.6788 134.148 39.3827 134.148 39.074C134.148 38.7653 134.025 38.4692 133.807 38.251C133.589 38.0327 133.293 37.91 132.984 37.91H131.238V36.164C131.238 35.8553 131.115 35.5592 130.897 35.3409C130.679 35.1226 130.383 35 130.074 35C129.765 35 129.469 35.1226 129.251 35.3409C129.033 35.5592 128.91 35.8553 128.91 36.164V37.91H127.164C126.855 37.91 126.559 38.0327 126.341 38.251C126.123 38.4692 126 38.7653 126 39.074C126 39.3827 126.123 39.6788 126.341 39.8971C126.559 40.1154 126.855 40.238 127.164 40.238Z" fill="#00CDA9"></path> <path d="M120.569 142.06H122.922V144.413C122.922 144.83 123.088 145.229 123.382 145.523C123.676 145.817 124.075 145.982 124.491 145.982C124.907 145.982 125.306 145.817 125.601 145.523C125.895 145.229 126.06 144.83 126.06 144.413V142.06H128.413C128.83 142.06 129.229 141.895 129.523 141.601C129.817 141.306 129.982 140.907 129.982 140.491C129.982 140.075 129.817 139.676 129.523 139.382C129.229 139.088 128.83 138.922 128.413 138.922H126.06V136.569C126.06 136.153 125.895 135.754 125.601 135.46C125.306 135.165 124.907 135 124.491 135C124.075 135 123.676 135.165 123.382 135.46C123.088 135.754 122.922 136.153 122.922 136.569V138.922H120.569C120.153 138.922 119.754 139.088 119.46 139.382C119.165 139.676 119 140.075 119 140.491C119 140.907 119.165 141.306 119.46 141.601C119.754 141.895 120.153 142.06 120.569 142.06Z" fill="#DFFDF5"></path> </svg> 