<?xml version="1.0" encoding="UTF-8"?> <svg xmlns="http://www.w3.org/2000/svg" width="56" height="55" viewBox="0 0 56 55" fill="none"> <path d="M27.7094 54.9446C43.0128 54.9446 55.4187 42.6447 55.4187 27.472C55.4187 12.2993 43.0128 -0.000610352 27.7094 -0.000610352C12.4059 -0.000610352 0 12.2993 0 27.472C0 42.6447 12.4059 54.9446 27.7094 54.9446Z" fill="#00A38F"></path> <path d="M27.7091 7.63C25.8845 9.44449 13.3718 22.2142 13.3718 32.1612C13.3718 39.2429 19.0659 41.591 27.7091 47.4211C36.3525 41.591 42.0466 39.2429 42.0466 32.1612C42.0466 22.2142 29.5338 9.44449 27.7091 7.63ZM27.3955 42.4465C26.9343 42.1468 26.476 41.8499 26.0286 41.5611C19.126 37.1039 17.3741 35.5984 17.3741 32.1612C17.3741 26.6685 22.7482 19.0819 27.3955 13.7953V42.4465Z" fill="white"></path> </svg> 